<?xml version="1.0" standalone="no"?>
<!DOCTYPE svg PUBLIC "-//W3C//DTD SVG 20010904//EN"
 "http://www.w3.org/TR/2001/REC-SVG-20010904/DTD/svg10.dtd">
<svg version="1.0" xmlns="http://www.w3.org/2000/svg"
 width="128.000000pt" height="128.000000pt" viewBox="0 0 128.000000 128.000000"
 preserveAspectRatio="xMidYMid meet">

<g transform="translate(0.000000,128.000000) scale(0.100000,-0.100000)"
fill="#000000" stroke="none">
<path d="M260 1137 c-33 -16 -50 -52 -50 -104 0 -40 -2 -43 -28 -43 -48 0 -52
-13 -52 -156 0 -73 3 -139 6 -148 4 -10 18 -16 40 -16 l34 0 0 -185 0 -184 30
-34 c17 -20 30 -46 30 -61 0 -31 29 -63 65 -72 69 -17 145 26 145 82 l0 24
160 0 160 0 0 -24 c0 -56 76 -99 145 -82 36 9 65 41 65 73 0 16 11 39 28 56
l27 28 3 190 3 189 34 0 c21 0 35 6 39 16 3 9 6 75 6 148 0 142 -4 156 -51
156 -25 0 -27 3 -31 56 -3 39 -11 61 -27 77 -21 22 -26 22 -389 25 -282 1
-373 -1 -392 -11z m750 -97 l0 -50 -370 0 -370 0 0 50 0 50 370 0 370 0 0 -50z
m-800 -215 c0 -63 -4 -105 -10 -105 -6 0 -10 42 -10 105 0 63 4 105 10 105 6
0 10 -42 10 -105z m800 -80 l0 -185 -370 0 -370 0 0 185 0 185 370 0 370 0 0
-185z m80 80 c0 -63 -4 -105 -10 -105 -6 0 -10 42 -10 105 0 63 4 105 10 105
6 0 10 -42 10 -105z m-80 -419 c0 -85 -3 -105 -16 -110 -20 -8 -688 -8 -708 0
-13 5 -16 25 -16 110 l0 104 370 0 370 0 0 -104z m-580 -178 c-1 -29 -18 -39
-61 -36 -37 2 -45 7 -47 26 -3 21 0 22 52 22 38 0 56 -4 56 -12z m528 -10 c-2
-19 -10 -24 -47 -26 -28 -2 -47 1 -52 10 -19 30 -9 38 47 38 52 0 55 -1 52
-22z"/>
<path d="M437 1063 c-13 -12 -7 -41 9 -47 20 -8 368 -8 388 0 21 8 21 40 0 48
-21 8 -389 8 -397 -1z"/>
<path d="M345 455 c-16 -15 -25 -36 -25 -55 0 -19 9 -40 25 -55 15 -16 36 -25
55 -25 70 0 105 86 55 135 -15 16 -36 25 -55 25 -19 0 -40 -9 -55 -25z m75
-41 c11 -12 10 -18 -3 -32 -16 -15 -18 -15 -34 0 -13 14 -14 20 -3 32 7 9 16
16 20 16 4 0 13 -7 20 -16z"/>
<path d="M825 455 c-16 -15 -25 -36 -25 -55 0 -19 9 -40 25 -55 49 -50 135
-15 135 55 0 41 -39 80 -80 80 -19 0 -40 -9 -55 -25z m75 -41 c11 -12 10 -18
-3 -32 -16 -15 -18 -15 -34 0 -13 14 -14 20 -3 32 7 9 16 16 20 16 4 0 13 -7
20 -16z"/>
<path d="M540 415 c-10 -12 -10 -18 0 -30 9 -11 34 -15 100 -15 66 0 91 4 100
15 10 12 10 18 0 30 -9 11 -34 15 -100 15 -66 0 -91 -4 -100 -15z"/>
</g>
</svg>
