<?xml version="1.0" standalone="no"?>
<!DOCTYPE svg PUBLIC "-//W3C//DTD SVG 20010904//EN"
 "http://www.w3.org/TR/2001/REC-SVG-20010904/DTD/svg10.dtd">
<svg version="1.0" xmlns="http://www.w3.org/2000/svg"
 width="512.000000pt" height="512.000000pt" viewBox="0 0 512.000000 512.000000"
 preserveAspectRatio="xMidYMid meet">

<g transform="translate(0.000000,512.000000) scale(0.100000,-0.100000)"
fill="#000000" stroke="none">
<path d="M2325 4949 c-297 -28 -652 -138 -920 -286 -664 -367 -1101 -999
-1221 -1765 -25 -158 -25 -518 0 -676 66 -422 224 -798 473 -1124 47 -62 50
-68 30 -68 -33 0 -138 -64 -182 -111 -72 -77 -99 -146 -100 -249 0 -68 4 -93
22 -125 25 -47 74 -95 123 -121 34 -18 106 -19 2010 -22 2194 -3 2021 -8 2093
65 52 51 71 108 64 186 -15 160 -117 301 -257 354 -25 9 -46 18 -48 19 -2 1
19 31 46 66 250 322 416 715 479 1137 24 162 24 513 -1 669 -109 698 -478
1280 -1052 1661 -457 304 -1007 441 -1559 390z m590 -178 c320 -54 611 -168
871 -340 542 -360 892 -907 991 -1551 24 -159 24 -492 -1 -645 -73 -454 -257
-845 -555 -1178 -67 -74 -76 -106 -42 -148 16 -20 31 -24 108 -30 96 -7 138
-22 191 -73 44 -41 72 -96 79 -155 5 -41 2 -52 -16 -70 l-21 -21 -1940 0
c-2130 0 -1983 -4 -2010 60 -31 75 21 186 109 232 47 25 64 28 143 28 81 0 91
2 113 25 42 41 34 74 -36 152 -298 333 -486 730 -555 1173 -22 141 -25 501 -6
625 84 520 291 936 642 1285 182 183 360 310 595 425 266 131 494 196 810 229
97 10 414 -4 530 -23z"/>
<path d="M2377 4229 c-649 -75 -1201 -521 -1407 -1136 -136 -409 -110 -862 74
-1248 252 -531 752 -887 1341 -955 775 -88 1524 396 1774 1148 59 179 76 294
76 522 0 174 -4 222 -23 317 -117 580 -520 1056 -1065 1257 -238 89 -525 124
-770 95z m458 -174 c326 -58 650 -242 868 -492 605 -695 466 -1752 -297 -2265
-171 -114 -375 -198 -576 -235 -144 -26 -421 -24 -560 6 -215 45 -412 131
-587 254 -109 77 -279 246 -356 353 -331 467 -374 1069 -115 1577 202 394 579
688 1008 786 52 12 124 26 160 31 93 13 349 4 455 -15z"/>
<path d="M2386 3909 c-221 -29 -456 -125 -641 -265 -95 -71 -239 -222 -303
-317 -159 -235 -236 -486 -236 -767 1 -223 40 -398 133 -587 76 -155 142 -246
270 -373 165 -165 318 -260 526 -329 161 -53 243 -66 430 -65 250 1 405 38
620 147 363 186 622 527 712 939 25 117 25 419 0 536 -93 424 -358 766 -740
952 -67 33 -161 71 -209 84 -176 50 -387 67 -562 45z m297 -155 l37 -7 0 -397
c0 -387 1 -398 21 -424 39 -50 59 -42 417 164 181 104 336 192 344 195 11 4
31 -18 68 -76 61 -95 107 -191 94 -196 -5 -2 -162 -93 -349 -201 -364 -211
-371 -217 -349 -279 8 -23 71 -64 349 -225 187 -108 344 -199 349 -201 5 -1
-2 -28 -16 -59 -29 -62 -126 -218 -136 -218 -4 0 -25 11 -47 23 -705 408 -681
396 -724 341 -20 -26 -21 -37 -21 -424 l0 -397 -37 -7 c-49 -8 -178 -8 -237 0
l-46 7 0 397 c0 387 -1 398 -21 424 -40 50 -59 43 -426 -169 l-338 -195 -23
27 c-28 35 -95 149 -120 206 l-19 43 225 129 c469 270 466 269 476 298 6 17 6
37 0 54 -10 29 -7 28 -476 298 l-225 129 19 43 c25 57 92 171 120 206 l23 27
338 -195 c367 -212 386 -219 426 -169 20 26 21 37 21 425 l0 398 33 4 c55 7
210 7 250 1z m419 -124 c91 -46 218 -133 267 -184 l31 -32 -255 -147 c-140
-81 -257 -147 -260 -147 -3 0 -5 135 -5 299 l0 300 69 -24 c38 -13 107 -42
153 -65z m-862 -215 c0 -162 -2 -295 -4 -295 -4 0 -508 289 -514 295 -5 5 146
123 207 162 83 54 257 131 299 133 9 0 12 -65 12 -295z m-537 -730 c114 -65
207 -122 207 -125 0 -3 -114 -71 -252 -152 l-253 -146 -12 41 c-7 22 -18 89
-24 149 -12 112 -3 265 22 363 l11 44 47 -27 c26 -15 140 -81 254 -147z m2036
113 c23 -112 26 -314 6 -430 -9 -56 -18 -104 -20 -106 -4 -4 -515 291 -515
298 0 5 500 298 511 299 3 1 11 -27 18 -61z m-1499 -1094 l0 -296 -32 7 c-50
11 -216 87 -279 128 -103 66 -212 159 -197 168 179 106 495 288 501 288 4 1 7
-132 7 -295z m905 149 l255 -147 -31 -32 c-83 -86 -277 -201 -420 -249 l-69
-24 0 300 c0 164 2 299 5 299 3 0 120 -66 260 -147z"/>
<path d="M2480 2787 c-49 -16 -133 -102 -148 -153 -28 -94 -8 -169 63 -239 70
-71 145 -91 239 -63 55 16 138 99 154 154 28 94 8 169 -63 239 -70 71 -152 91
-245 62z m135 -172 c50 -49 15 -135 -55 -135 -19 0 -40 9 -55 25 -50 49 -15
135 55 135 19 0 40 -9 55 -25z"/>
</g>
</svg>
